<?xml version="1.0" encoding="utf-8"?>
<!-- Generator: Adobe Illustrator 27.8.1, SVG Export Plug-In . SVG Version: 6.00 Build 0)  -->
<svg version="1.1" id="Layer_1" xmlns="http://www.w3.org/2000/svg" xmlns:xlink="http://www.w3.org/1999/xlink" x="0px" y="0px"
	 viewBox="0 0 499 499" style="enable-background:new 0 0 499 499;" xml:space="preserve">
<style type="text/css">
	.st0{fill:#0AC18E;}
	.st1{fill:#FFFFFF;}
</style>
<circle class="st0" cx="249.5" cy="249.5" r="249.5"/>
<path id="symbol_1_" class="st1" d="M327.1,166c-12.5-28.4-41.2-34.3-76.4-28.5l-11.3-43.7l-26.7,6.9l11.1,43.7
	c-7,1.8-14.2,3.3-21.3,5.3l-11.2-43.4l-26.7,6.9l11.3,43.8c-5.7,1.6-53.7,14-53.7,14l7.4,28.5c0,0,19.6-5.5,19.4-5
	c10.8-2.8,15.9,2.6,18.4,7.7l31,120c0.4,3.5-0.2,9.5-7.7,11.4c0.4,0.2-19.4,5-19.4,5l2.9,33.2c0,0,47.5-12.2,53.8-13.7l11.5,44.3
	l26.6-6.9l-11.4-44.6c7.4-1.7,14.4-3.5,21.4-5.3l11.4,44.4l26.7-6.9l-11.4-44.2c41-10,70-35.8,64-75.4
	c-3.8-23.8-29.8-43.4-51.5-45.6C328.6,205.8,335.4,188.6,327.1,166z M314.3,270.4c5.3,39.2-49.1,44-67.2,48.7l-15.7-58.6
	C249.6,255.8,305.4,235.9,314.3,270.4z M281.5,190.7c5.6,34.8-40.9,38.9-56,42.8l-14.3-53.2C226.3,176.4,270.1,158.4,281.5,190.7z"
	/>
</svg>
