<svg xmlns="http://www.w3.org/2000/svg" viewBox="0 0 192 192"><circle cx="96" cy="96" r="96" style="fill:#f0b90b"/><path d="M61.95152,51.49915,96,31.84615l34.04859,19.653-12.518,7.26034L96,46.36684,74.46938,58.75949ZM130.04859,76.2844l-12.518-7.26029L96,81.41676,74.46938,69.02411,61.95152,76.2844V90.80514l21.53062,12.39239v24.78531L96,135.24344l12.518-7.2606V103.19753l21.53057-12.39239Zm0,39.30605V101.06976l-12.518,7.26008v14.52068Zm8.88744,5.1323-21.53056,12.39239v14.52069l34.04858-19.653v-39.306l-12.518,7.26061ZM126.41855,63.8918,138.936,71.15209V85.67284l12.518-7.2604V63.8918l-12.518-7.26034ZM83.48214,138.37308v14.52069L96,160.15385l12.518-7.26008V138.37308L96,145.63315ZM61.95152,115.59045l12.51786,7.26007V108.32984l-12.51786-7.26008ZM83.48214,63.8918,96,71.15209l12.518-7.26029L96,56.63146ZM53.06376,71.15209,65.58162,63.8918,53.06376,56.63146,40.546,63.8918V78.41244l12.51781,7.2604Zm0,24.78536L40.546,88.67684v39.306l34.04843,19.653V133.11514L53.06376,120.72275Z" style="fill:#fff"/></svg>