<?xml version="1.0" encoding="utf-8"?>
<!-- Generator: Adobe Illustrator 27.8.1, SVG Export Plug-In . SVG Version: 6.00 Build 0)  -->
<svg version="1.1" id="Layer_1" xmlns="http://www.w3.org/2000/svg" xmlns:xlink="http://www.w3.org/1999/xlink" x="0px" y="0px"
	 viewBox="0 0 467 467" style="enable-background:new 0 0 467 467;" xml:space="preserve">
<style type="text/css">
	.st0{fill:#FBFBFB;}
</style>
<circle cx="233.5" cy="233.5" r="233.5"/>
<g>
	<path class="st0" d="M234.5,371.4c-33.8,0-67.6,0-101.5,0c-42.5,0-65.9-40.7-44.6-77.6c42.2-73.1,84.3-146.2,126.5-219.3
		c9.9-17.2,30-17.2,39.9,0c42.5,73.7,85.1,147.3,127.5,221c20,34.7-3.8,75.7-44,75.8C303.8,371.5,269.2,371.4,234.5,371.4z
		 M216,142.4c-32.1,57.9-64,115.5-95.8,173.2c-4.7,8.6,1.1,17.5,11.2,17.5c26.3,0.1,52.7-0.1,79,0.1c4.5,0,5.8-1,5.8-5.7
		c-0.2-60.2-0.1-120.3-0.1-180.5C216,145.5,216,143.9,216,142.4z M254.5,141.5c-0.2,1.4-0.3,1.9-0.3,2.3c0,61.8,0,123.6,0.2,185.4
		c0,1.3,2.7,3.7,4.2,3.7c26.2,0.2,52.3,0.2,78.5,0.2c12.9,0,17.9-8.7,11.6-20c-17.9-32.1-36.1-64.1-53.8-96.4
		C281.3,192,268.2,167.1,254.5,141.5z"/>
</g>
</svg>
