<svg xmlns="http://www.w3.org/2000/svg" width="29" height="32" fill="none" xmlns:v="https://vecta.io/nano"><path d="M13.54 15.28L.12 29.34a3.66 3.66 0 0 0 2.141 2.374A3.66 3.66 0 0 0 5.45 31.5l15.1-8.6-7.01-7.62z" fill="#ea4335"/><path d="M27.11 12.89l-6.53-3.74-7.35 6.45 7.38 7.28 6.48-3.7a3.54 3.54 0 0 0 1.746-2.083 3.54 3.54 0 0 0-.246-2.707 3.62 3.62 0 0 0-1.5-1.5h.02z" fill="#fbbc04"/><path d="M.12 2.66a3.57 3.57 0 0 0-.12.92v24.84a3.57 3.57 0 0 0 .12.92L14 15.64.12 2.66z" fill="#4285f4"/><path d="M13.64 16l6.94-6.85L5.5.51A3.73 3.73 0 0 0 3.63 0 3.64 3.64 0 0 0 .12 2.65L13.64 16z" fill="#34a853"/></svg>