<svg xmlns="http://www.w3.org/2000/svg" width="70" height="83" viewBox="0 0 70 83" fill="none"><path d="M23.7002 3.14339C35.5869 1.80765 47.7083 2.56868 59.3304 5.41682C59.5854 5.44223 59.7285 5.65517 59.8704 5.84392C59.8596 12.8469 59.8692 19.8511 59.8656 26.8553C59.9486 31.6005 58.7952 36.37 56.5088 40.5249C55.1737 42.9495 53.4875 45.1806 51.5065 47.1068C46.9433 51.385 41.466 54.653 35.5942 56.7546C35.3524 56.8478 35.0818 56.9204 34.8292 56.8236C29.7127 55.0184 24.9125 52.3082 20.7174 48.8527C18.378 46.9725 16.3442 44.7111 14.7156 42.1836C11.9986 37.961 10.4808 32.9702 10.3749 27.9418C10.3737 20.577 10.3761 13.2111 10.3737 5.84634C10.4651 5.73019 10.5565 5.61403 10.6467 5.49788C14.9321 4.39686 19.3065 3.64914 23.7002 3.14339ZM11.1964 6.19479C11.1747 13.1651 11.194 20.1354 11.1868 27.1069C11.182 30.2285 11.6895 33.3573 12.7455 36.2962C14.2237 40.5067 16.8108 44.307 20.1292 47.2677C24.4459 51.0547 29.4746 54.0178 34.8713 55.9512C35.1034 56.0638 35.35 55.9658 35.5725 55.8811C41.1521 53.8351 46.3744 50.7401 50.744 46.6845C52.4423 45.0608 53.9385 43.223 55.1629 41.2133C57.7548 36.9629 59.1223 31.9659 59.0538 26.9799C59.0466 20.0495 59.0682 13.1191 59.043 6.18995C52.6167 4.65215 46.0497 3.68543 39.4478 3.41441C29.9629 2.99941 20.4251 3.95766 11.1964 6.19479Z" fill="#AAB4DA"></path><path d="M32.6318 4.76109C40.9079 4.55661 49.2117 5.3854 57.2881 7.21963C57.4192 7.27045 57.685 7.27529 57.6381 7.48823C57.6454 13.9843 57.6393 20.4803 57.6417 26.9775C57.7259 32.1184 56.1948 37.2787 53.2974 41.517C52.1428 43.2569 50.7368 44.8201 49.1876 46.2127C45.0646 49.8315 40.2716 52.6942 35.1131 54.5345C29.8294 52.641 24.9198 49.6851 20.7426 45.9187C15.6033 41.2424 12.5531 34.3253 12.5988 27.3502C12.5976 20.8566 12.6036 14.3617 12.5952 7.86814C12.6192 7.68666 12.5447 7.46766 12.6625 7.31279C13.0366 7.17244 13.4347 7.11921 13.822 7.02846C20.0029 5.6782 26.3101 4.9208 32.6318 4.76109ZM12.9608 7.59591C12.9548 14.219 12.962 20.842 12.9584 27.4639C12.9572 34.1329 15.8137 40.7269 20.6307 45.3028C24.8067 49.1891 29.7825 52.1897 35.1227 54.1533C39.71 52.4595 44.023 50.0058 47.8069 46.8927C49.7228 45.3585 51.438 43.5654 52.8344 41.5388C55.7125 37.4106 57.2929 32.3834 57.2821 27.3405C57.2797 20.7598 57.2833 14.1778 57.2809 7.59591C42.7529 4.26502 27.4888 4.26502 12.9608 7.59591Z" fill="#AAB4DA"></path><path d="M43.1005 11.4736C43.4674 9.73979 45.2522 8.42946 47.0047 8.70895C47.0552 8.76702 47.1538 8.88439 47.2043 8.94246C46.971 9.63211 46.6414 10.2903 46.443 10.9908C47.7636 12.4875 49.0986 13.9721 50.4193 15.4687C50.7608 15.8462 50.8005 16.4125 50.6009 16.8698C50.4289 17.257 50.5167 17.6986 50.7452 18.0422C52.4002 20.7355 54.0311 23.4445 55.6861 26.1377C55.9748 26.5878 55.887 27.1577 55.7667 27.6477C55.6909 27.9756 55.4672 28.2551 55.1701 28.4087C54.5591 28.7427 53.9746 29.1262 53.4177 29.5461C52.8572 29.9332 52.5084 30.5539 51.9407 30.935C51.6388 31.0766 51.2131 30.86 51.2419 30.4971C51.1782 29.6223 50.4313 28.8709 49.5617 28.8141C49.2779 28.7645 48.9904 29.1468 49.1913 29.3912C49.5797 29.8171 50.0957 30.1014 50.4926 30.52C50.6851 30.7245 50.5768 31.0282 50.5732 31.2787C50.1294 31.3476 49.7253 31.1286 49.2995 31.05C48.7919 30.9447 48.2724 30.8951 47.7552 30.9242C47.3883 31.0088 47.0299 30.6084 47.1466 30.2502C47.2296 29.9453 47.2404 29.563 46.9589 29.3561C46.0449 28.6156 45.1151 27.8921 44.2143 27.1359C44.0711 26.9847 43.8522 27.0186 43.6682 26.9919C42.0806 26.8939 40.5543 26.1208 39.5248 24.9036C38.2751 25.7905 37.462 27.2303 37.1962 28.7318C37.1024 29.4009 37.0134 30.1111 37.266 30.7572C37.6148 31.6779 38.2282 32.462 38.6552 33.344C39.6931 35.5 39.9602 38.0167 39.4117 40.3482C39.1387 41.6367 38.5012 42.7946 37.9323 43.967C37.0242 45.771 36.0476 47.5399 35.0084 49.2701C34.9062 49.4818 34.7522 49.2567 34.7486 49.1212C32.206 41.9452 27.0186 35.7965 20.4756 31.984C20.9279 28.0083 22.3928 24.1414 24.767 20.923C28.7818 15.3586 35.3849 11.77 42.2249 11.528C42.5172 11.5208 42.8083 11.499 43.1005 11.4736Z" fill="#AAB4DA"></path><path d="M26.7395 13.107C31.7742 10.0289 37.8529 8.73918 43.6959 9.5099C43.3363 10.0459 42.884 10.5117 42.5485 11.0671C38.0057 11.1868 33.517 12.7065 29.8041 15.3393C26.9296 17.3852 24.5096 20.0797 22.8101 23.1855C21.3548 25.8256 20.4227 28.7523 20.0643 31.7493C18.3479 30.837 16.6015 29.9792 14.8155 29.2121C16.4632 22.5382 20.8749 16.629 26.7395 13.107Z" fill="#AAB4DA"></path><path d="M37.5907 30.3568C37.2684 28.5056 38.2258 26.6677 39.55 25.4373C39.8459 25.6913 40.1297 25.9575 40.4064 26.2334C40.2163 26.6072 40.0383 27.0283 40.1381 27.4554C40.1754 27.9055 40.4905 28.2394 40.7335 28.5927C42.0734 30.462 43.0187 32.6084 43.5491 34.8492C43.7223 35.517 43.7344 36.2139 43.7139 36.9012C43.6466 38.1994 43.4024 39.5098 42.8431 40.6918C40.9668 44.2962 38.322 47.5073 35.1058 49.9815C36.8643 47.1891 38.405 44.2538 39.6414 41.1891C40.2139 39.3996 40.3089 37.4505 39.8627 35.6223C39.6198 34.6011 39.2265 33.6187 38.7381 32.6931C38.3508 31.9163 37.7182 31.246 37.5907 30.3568Z" fill="#AAB4DA"></path><path d="M48.6584 63.5713C49.2333 62.9022 50.1101 62.4945 50.9942 62.5453C52.1368 62.5453 53.2072 63.3232 53.6258 64.3819C53.8892 64.9966 53.8651 65.6947 53.7268 66.3383C55.0342 66.3408 56.3416 66.3117 57.6478 66.3529C57.6333 67.5349 57.649 68.7158 57.6406 69.8979C59.7574 67.5749 62.8857 66.1629 66.0333 66.3033C67.2926 66.2585 68.5531 66.2766 69.8136 66.2718C69.8208 70.2863 69.8256 74.3008 69.8112 78.3153C68.7973 78.308 67.7833 78.3165 66.7706 78.3092C66.7297 79.0969 66.4976 79.9087 65.9311 80.4798C65.0351 81.455 63.4679 81.7067 62.318 81.0509C61.3366 80.5161 60.7364 79.4066 60.7665 78.2911C58.0904 78.2729 55.4155 78.2802 52.7394 78.2887C52.7418 76.3129 52.7406 74.3371 52.7406 72.3613C50.9208 72.7291 49.3596 74.1786 48.8942 75.9922C48.6644 76.746 48.7534 77.5397 48.7438 78.3141C47.2933 78.308 45.8428 78.3177 44.3923 78.3092C44.3863 78.5948 44.3802 78.8803 44.3706 79.167C40.9753 79.1525 37.5811 79.1549 34.1857 79.1658C33.8694 79.4756 33.6132 79.9172 33.2067 80.0914C30.8638 80.1023 28.5208 80.0878 26.1766 80.0987C27.2363 79.1816 28.1744 78.1398 29.1703 77.1574C28.5653 76.6299 28.065 75.9922 27.6717 75.2929C25.9493 77.0303 24.2607 78.8004 22.5335 80.533C20.1821 80.5669 17.8296 80.5427 15.477 80.5451C15.7127 80.181 16.0711 79.9281 16.3634 79.6159C18.562 77.397 20.7366 75.1538 22.9232 72.9227C23.183 72.642 23.5077 72.302 23.4067 71.8822C23.3562 71.5809 23.106 71.3885 22.8631 71.2421C20.2098 73.9088 17.5986 76.6178 14.9646 79.3026C14.5761 79.53 14.0758 79.3134 13.65 79.4272C13.4095 79.6292 13.2098 79.8736 12.9945 80.1023C8.78128 80.0757 4.56805 80.1193 0.356018 80.0817C1.30138 79.2154 2.17939 78.2814 3.08506 77.374C1.63334 76.3104 0.618217 74.6383 0.459454 72.8271C0.206877 70.6021 1.28213 68.3129 3.10911 67.0461C2.92629 66.8005 2.73987 66.5573 2.56066 66.3105C3.91856 65.3922 5.59399 64.9482 7.22492 65.1345C9.14691 65.322 10.9558 66.3722 12.1117 67.9233C13.0715 69.2107 13.5995 70.8368 13.4985 72.4496C14.2369 71.6015 15.0837 70.8586 15.8354 70.0237C16.0964 69.7648 16.3297 69.4708 16.6268 69.2542C17.8175 69.2143 19.0119 69.2506 20.2038 69.2373C20.2098 68.1786 20.2038 67.1212 20.2062 66.0625C21.249 66.0661 22.293 66.0564 23.3357 66.0649C24.8945 66.0976 26.3835 66.9046 27.3601 68.1109C28.077 66.9554 29.1558 66.0201 30.438 65.5604C31.2474 65.2482 32.1182 65.1514 32.9806 65.149C33.001 65.4297 33.0155 65.7104 33.0227 65.9923C33.9644 66.0419 34.9182 66.1835 35.783 66.584C36.3784 66.8332 36.9172 67.1938 37.4572 67.5446C36.8438 66.7739 36.5455 65.7225 36.833 64.7582C37.0603 63.8641 37.7579 63.1321 38.6022 62.7921C39.5897 62.4206 40.7768 62.6058 41.5694 63.3172C42.5473 64.1266 42.8467 65.587 42.3524 66.7449C43.9412 67.7334 45.1873 69.2554 45.8284 71.0219C46.8062 69.7781 48.0655 68.7545 49.4991 68.0927C48.8966 67.7249 48.3734 67.1853 48.1412 66.5053C47.7732 65.5289 47.9777 64.3589 48.6584 63.5713ZM50.4457 63.4709C49.4186 63.6899 48.6777 64.7933 48.8882 65.8338C49.0589 66.8659 50.1029 67.6475 51.1349 67.4938C52.215 67.3777 53.0593 66.2779 52.8861 65.1974C52.7598 64.0589 51.5607 63.1877 50.4457 63.4709ZM39.1182 63.558C38.0754 63.8229 37.3682 64.9893 37.6737 66.0407C37.9203 67.0631 39.0292 67.7769 40.0528 67.5313C41.1268 67.3486 41.8894 66.1484 41.6163 65.0897C41.4034 63.9996 40.1863 63.2313 39.1182 63.558ZM5.05275 67.1659C3.49519 67.6209 2.1866 68.8622 1.64657 70.4C1.20155 71.593 1.23523 72.9517 1.71392 74.129C2.24674 75.4647 3.3677 76.5427 4.71117 77.0328C4.09176 77.7454 3.3665 78.3564 2.74708 79.069C4.17475 79.0642 5.60241 79.0715 7.03007 79.0654C7.76616 78.233 8.59846 77.4962 9.34416 76.6746C9.84451 76.1253 10.4471 75.6644 10.8392 75.0231C11.5452 73.962 11.8435 72.6299 11.639 71.3692C11.3985 69.7443 10.3292 68.279 8.8811 67.5289C7.71564 66.9167 6.31083 66.7751 5.05275 67.1659ZM21.1973 67.0595C21.1936 68.1447 21.2033 69.23 21.1876 70.3153C22.0091 70.2415 22.9184 70.1217 23.6653 70.5585C24.577 71.0631 24.7081 72.515 23.9383 73.2022C21.8792 75.299 19.8357 77.4103 17.7899 79.5191C19.2717 79.5276 20.7546 79.524 22.2364 79.5203C23.5679 78.141 24.921 76.7835 26.2416 75.3945C26.6265 74.9783 27.1196 74.6347 27.3445 74.0951C27.5935 73.5083 27.7174 72.8743 27.7715 72.2415C27.81 70.2004 26.612 68.0939 24.6672 67.3595C23.5667 66.8876 22.3555 67.1042 21.1973 67.0595ZM32.2217 67.1333C30.8048 67.368 29.5095 68.2319 28.7277 69.443C27.8785 70.7412 27.6548 72.4448 28.1924 73.9076C28.6218 75.1828 29.5852 76.227 30.7519 76.8634C30.0218 77.5796 29.3122 78.3165 28.6122 79.0618C30.0784 79.0751 31.5445 79.0654 33.0119 79.0642C33.5663 78.4822 34.1364 77.9124 34.6753 77.3147C39.0545 77.305 43.4337 77.3244 47.8129 77.305C47.8093 76.1072 48.1376 74.9009 48.8256 73.9172C49.7108 72.5791 51.1794 71.6934 52.7466 71.4357C52.7333 70.3819 52.743 69.3293 52.7418 68.2766C52.15 68.3214 51.5619 68.423 50.9966 68.6045C47.7299 69.645 45.2763 72.6444 44.5835 75.9826C44.7423 74.1483 44.3754 72.2427 43.4132 70.6638C42.5076 69.155 40.962 68.0407 39.2361 67.7104C38.8885 68.8029 38.4928 69.8798 38.144 70.9723C39.0593 70.9711 39.9998 71.3268 40.5808 72.06C41.0955 72.6493 41.3253 73.4551 41.2435 74.2318C40.0924 74.2209 38.9414 74.2318 37.7892 74.2258C38.5926 72.3214 38.0995 69.9766 36.6189 68.5476C35.4859 67.4127 33.8009 66.8513 32.2217 67.1333ZM53.6077 67.2131C53.6174 70.6009 53.6101 73.9886 53.6113 77.3764C55.7258 77.374 57.839 77.3715 59.9534 77.3776C59.9282 76.1604 60.3191 74.9445 61.0083 73.9487C61.8995 72.6359 63.3488 71.7648 64.8943 71.4877C64.8811 70.4145 64.8342 69.3426 64.8655 68.2706C61.1959 68.7884 58.0158 71.6862 57.0055 75.2542C56.9153 75.5494 56.8961 75.8664 56.7601 76.1483C56.7445 73.1659 56.8034 70.1798 56.7529 67.1974C55.7053 67.2264 54.6565 67.1974 53.6077 67.2131ZM65.8517 67.2385C65.8469 70.6287 65.8505 74.0177 65.8517 77.4066C66.8933 77.4054 67.9337 77.4042 68.9753 77.409C68.9801 74.0201 68.9753 70.6311 68.9777 67.2422C67.9349 67.2361 66.8933 67.2434 65.8517 67.2385ZM10.1837 77.1586C9.54021 77.7817 8.96289 78.4726 8.29296 79.069C9.73145 79.0618 11.1711 79.0775 12.6096 79.0594C15.2088 76.3661 17.832 73.6982 20.4491 71.0243C20.6476 70.8053 20.8473 70.5851 21.0926 70.4194C20.9808 70.3202 20.8725 70.1568 20.6933 70.2294C19.4473 70.2379 18.2024 70.2439 16.9576 70.2282C14.694 72.5319 12.4352 74.8416 10.1837 77.1586ZM63.2009 72.4182C62.3036 72.6142 61.5976 73.4793 61.6349 74.4121C61.6132 75.5555 62.7186 76.573 63.8552 76.4085C64.8883 76.3177 65.7459 75.3256 65.6641 74.2802C65.6328 73.0824 64.3579 72.0999 63.2009 72.4182ZM63.5208 76.4738C62.5297 76.5972 61.6842 77.5034 61.7263 78.5246C61.7119 79.6377 62.7486 80.6177 63.8552 80.5222C64.9773 80.498 65.8962 79.3739 65.7483 78.2645C65.6473 77.1888 64.5828 76.3407 63.5208 76.4738Z" fill="#AAB4DA"></path><path d="M5.8213 70.2536C7.00961 69.8374 8.42284 70.7255 8.54312 71.9899C8.74277 73.1139 7.87679 74.273 6.74862 74.3928C5.55549 74.6105 4.32868 73.5761 4.35514 72.3553C4.2902 71.4224 4.94088 70.5222 5.8213 70.2536Z" fill="#AAB4DA"></path><path d="M32.3973 70.2548C33.155 70.0165 34.0414 70.233 34.573 70.8368C35.2851 71.6003 35.3163 72.8936 34.6211 73.6801C34.0246 74.4169 32.9096 74.625 32.0785 74.1883C31.3208 73.8132 30.8409 72.9481 30.9335 72.1024C30.9864 71.2615 31.5974 70.498 32.3973 70.2548Z" fill="#AAB4DA"></path></svg>