<svg xmlns="http://www.w3.org/2000/svg" width="84" height="76" viewBox="0 0 84 76" fill="none"><path d="M64.3342 15.8787C64.9822 14.7445 66.8573 15.0275 67.2123 16.2634C67.5718 16.9489 66.6287 17.4264 66.0473 17.3203C65.1952 17.2982 64.6582 16.5774 64.3342 15.8787ZM64.7514 15.861C65.1575 16.6725 66.1139 17.2695 66.9638 16.657C66.6953 16.2811 66.5378 15.7019 66.0252 15.5891C65.5747 15.4277 65.1442 15.6753 64.7514 15.861Z" fill="#42C890"></path><path d="M10.0141 1.88531C12.4195 1.662 14.8361 1.98922 17.2082 2.38941C23.2729 3.43964 29.1112 5.57546 34.559 8.41217C37.5658 9.87807 40.3108 11.8724 42.6341 14.2713C43.2666 14.8639 42.6297 15.6908 42.4499 16.3408C41.8109 18.4899 41.9773 20.7871 42.3634 22.9672C42.7517 25.271 43.5928 27.4887 44.8088 29.483C43.058 28.2117 42.0882 26.1422 41.478 24.128C40.8988 21.8904 40.7124 19.5578 40.8389 17.254C40.8367 16.8162 40.9077 16.3452 40.7302 15.934C40.202 15.1955 39.3721 14.76 38.6398 14.2514C35.2757 12.1222 31.7852 10.1589 28.0572 8.73056C22.6405 6.57704 16.7689 5.42733 10.9283 5.84078C10.3003 4.62252 9.87205 3.26718 10.0141 1.88531Z" fill="#42C890"></path><path d="M66.429 5.84746C67.9025 5.59762 69.4491 5.38094 70.9226 5.71038C71.5994 5.92706 71.2599 6.68543 70.8006 6.92864C68.4328 8.61563 65.9963 10.2053 63.6019 11.8547C63.2247 11.5695 62.9007 11.061 62.3637 11.1185C61.769 11.5629 61.2364 12.0847 60.7372 12.6308C60.2933 12.1908 59.9094 11.4811 60.3821 10.9129C61.2742 9.76314 62.4503 8.8699 63.4843 7.85284C64.3653 7.06793 65.1886 6.02876 66.429 5.84746ZM68.7457 6.02213C67.6295 6.46433 66.4756 6.91758 65.5325 7.67154C65.0643 8.06509 64.4807 8.89201 65.142 9.38727C66.0695 9.20155 66.8839 8.69523 67.7294 8.29283C68.617 7.80862 69.5446 7.37747 70.3634 6.77608C70.552 6.53508 71.1933 6.22112 70.7429 5.89832C70.0882 5.71259 69.3826 5.82314 68.7457 6.02213Z" fill="#42C890"></path><path d="M10.8662 6.35378C15.3154 5.96465 19.8267 6.50634 24.0851 7.83957C29.6527 9.48898 34.8985 12.1466 39.6428 15.4742C39.9868 15.7549 40.424 16.0822 40.3929 16.5796C40.2886 19.6949 40.4173 22.912 41.6067 25.8349C42.7828 28.7468 45.2748 31.1081 48.2861 32.0566C52.5333 33.5004 57.3309 32.2357 60.7394 29.4587C62.053 32.2954 62.2461 35.634 61.1876 38.5857C59.7918 42.7225 56.2258 45.6587 52.5888 47.8388C47.8622 50.4278 42.4721 52.0839 37.0399 51.8672C39.5607 50.0497 41.9129 47.8918 43.5129 45.2032C45.4545 42.0526 45.7053 37.9246 44.183 34.5595C42.4744 30.8494 38.986 28.4019 35.5731 26.3677C31.6077 24.2806 27.2406 22.881 22.7647 22.4764C21.6996 22.3327 20.4969 22.6267 19.5671 21.9568C18.3821 21.1498 17.2615 20.2344 16.3273 19.1488C17.0973 18.6049 18.0848 18.7 18.979 18.6447C20.9318 18.543 22.8846 18.826 24.7663 19.3323C28.0771 20.1394 31.2881 21.4704 34.073 23.4492C34.3282 23.6217 34.61 23.7477 34.9118 23.8229C34.6544 23.2325 34.0486 22.9628 33.5471 22.6223C30.598 20.7054 27.2628 19.4097 23.8254 18.6845C21.4355 18.1627 18.948 18.0544 16.5292 18.4325C15.6948 17.705 14.9115 16.9179 14.1837 16.0822C13.9973 15.8345 13.7376 15.6046 13.6977 15.2774C15.5772 14.2692 17.8074 14.2868 19.8755 14.5256C23.9963 15.085 27.8663 16.7035 31.652 18.3484C32.6107 18.7553 33.5183 19.2903 34.5235 19.5822C34.215 19.0692 33.647 18.857 33.1388 18.6049C29.5772 16.9577 25.958 15.3393 22.1079 14.4814C19.3984 13.8822 16.507 13.67 13.8508 14.6207C12.9477 13.4135 12.1776 12.1134 11.5319 10.7559C12.728 10.1302 14.1237 10.1877 15.4352 10.1434C18.0714 10.1832 20.721 10.5016 23.2352 11.3197C26.9255 12.3765 30.385 14.0657 33.8067 15.7682C33.6891 15.4653 33.5116 15.1779 33.2054 15.0386C29.4929 13.0266 25.5541 11.3993 21.44 10.3999C18.3133 9.68354 15.0691 9.54646 11.8847 9.92012C11.3388 8.89864 10.7663 7.87495 10.3869 6.7805C10.2493 6.4577 10.6443 6.39358 10.8662 6.35378Z" fill="#42C890"></path><path d="M57.95 6.35153C58.0565 6.33826 58.2696 6.31173 58.3761 6.29846C58.3694 6.8888 58.953 7.92576 58.0055 7.99209L58.1475 7.5919C58.0388 7.52999 57.8191 7.41059 57.7082 7.3509C57.5484 7.52557 57.7947 8.12696 57.382 8.0761C57.2754 7.98988 57.0624 7.81521 56.9559 7.72677C56.9115 7.87048 56.825 8.16012 56.7806 8.30384C56.6874 8.2972 56.4988 8.28615 56.4056 8.28173C56.2946 7.7931 56.1238 7.30889 56.1526 6.80257C56.623 6.4864 56.5764 7.25582 56.9248 7.31552C57.0624 7.0104 57.0092 6.57926 57.3886 6.43333C57.4441 6.68096 57.5573 7.17623 57.6127 7.42386C57.7281 7.29341 57.8435 7.16075 57.9611 7.02809C57.9567 6.86006 57.9522 6.51956 57.95 6.35153Z" fill="#42C890"></path><path d="M59.1106 7.8992C58.8443 7.37519 58.6002 6.26306 59.4035 6.10608C59.3281 6.67431 59.7452 7.5985 59.1106 7.8992Z" fill="#42C890"></path><path d="M59.925 6.2609C60.2334 6.04423 60.4287 6.3007 60.3888 6.61466C60.3466 7.04802 60.5818 7.70248 60.0115 7.87051C59.7586 7.37083 59.8584 6.79154 59.925 6.2609Z" fill="#42C890"></path><path d="M60.9369 7.866C60.5863 7.30883 60.7017 6.44875 61.1743 5.97339C61.3141 6.56373 61.5693 7.48792 60.9369 7.866Z" fill="#42C890"></path><path d="M61.6603 7.81739C61.7868 7.3354 61.4495 6.28075 62.1818 6.26306C62.3526 6.77601 62.1729 7.3155 62.1285 7.83729C62.0109 7.83287 61.7779 7.82403 61.6603 7.81739Z" fill="#42C890"></path><path d="M62.7276 6.25427C63.5354 6.61024 62.9096 7.49243 62.6611 8.04297C62.4569 7.45706 62.6034 6.83798 62.7276 6.25427Z" fill="#42C890"></path><path d="M63.6375 6.73186C63.9925 6.72301 63.8816 7.26029 63.5798 7.2426C63.2203 7.25365 63.3334 6.70975 63.6375 6.73186Z" fill="#42C890"></path><path d="M55.2383 7.15196C55.964 6.85347 55.9795 7.9457 56.0239 8.41444L55.7021 8.64217C55.5157 8.15575 55.3027 7.67154 55.2383 7.15196Z" fill="#42C890"></path><path d="M54.83 8.89854C54.6503 8.36569 54.1532 7.73555 54.7058 7.25134C54.9366 7.7046 55.1718 8.16449 55.2783 8.66417C55.1651 8.72387 54.9432 8.84105 54.83 8.89854Z" fill="#42C890"></path><path d="M53.665 7.75989C54.1266 7.81516 54.2065 8.37233 54.3884 8.71504C54.5393 8.99362 54.3951 9.28327 54.06 9.24126C53.8359 8.81011 53.2501 8.21756 53.665 7.75989Z" fill="#42C890"></path><path d="M52.5533 8.22644C53.2168 8.33699 53.9025 9.32531 53.2612 9.84268C52.9594 9.33636 52.6709 8.81236 52.5533 8.22644Z" fill="#42C890"></path><path d="M48.4591 16.5443C50.423 11.1539 56.4433 7.5035 62.144 8.39232C61.5671 9.31873 60.4309 9.74987 59.9361 10.7448C59.5633 11.4125 59.6054 12.392 60.2756 12.863C60.7815 13.199 61.2764 13.5616 61.8245 13.8292C62.2039 13.7606 62.4525 13.4422 62.7254 13.2034C62.3171 13.0907 61.6802 13.4643 61.4406 12.9824C61.1854 12.8386 61.4006 12.2903 61.6869 12.4296C62.4769 12.8431 63.4755 12.9823 64.0702 13.6921C64.6072 14.5964 63.5376 15.452 63.7994 16.3784C64.0347 17.6586 65.3972 18.4745 66.6487 18.2954C67.5164 17.8421 68.4239 16.9975 68.1155 15.9141C67.7028 14.5345 65.9963 13.9994 64.7159 14.4527C64.6915 13.4953 63.8749 12.9801 63.116 12.5822C64.3431 12.2505 65.1575 11.2047 66.267 10.6542C68.6325 11.8282 69.8109 14.9059 69.0342 17.3911C68.7746 18.1008 67.9912 18.9653 67.1702 18.5098C67.0193 18.6005 66.8728 18.6934 66.7264 18.7862C67.2456 19.0294 67.807 19.0803 68.364 18.9587C68.4617 19.3191 68.799 19.7016 68.6259 20.0797C67.4121 20.6368 66.0207 20.4378 64.7292 20.3826C65.2773 20.7606 65.8743 21.0967 66.2914 21.6274C66.8085 22.1845 66.1605 22.9628 66.6065 23.5686C66.409 23.7234 66.2115 23.8804 66.0141 24.0329C65.3195 23.4426 66.3269 22.5869 65.7788 21.9369C64.7425 20.6435 62.9384 20.2875 61.3607 20.2035C62.2328 21.0127 63.329 21.5853 64.0635 22.5361C64.3542 23.0955 64.5939 23.6836 64.8402 24.2629C63.6108 24.0948 62.3792 23.6858 61.2919 23.0999C60.2867 20.2543 59.5699 17.3049 58.6069 14.4416C58.5669 14.163 58.2119 14.1365 58.092 14.3642C55.4203 17.3004 56.0727 22.3415 59.1705 24.7338C61.1233 26.1732 62.9673 28.0768 63.4266 30.5443C64.2965 34.67 63.5753 39.1761 61.1321 42.6606C57.7858 47.4585 52.4224 50.5163 46.8326 51.9954C40.4484 53.6537 33.7624 53.9743 27.2073 53.3972C26.8123 53.3773 26.4262 53.2866 26.06 53.1451C29.6394 52.2585 33.2542 51.1751 36.3609 49.1388C39.5474 47.1202 42.2147 43.9916 42.9648 40.2285C43.3176 38.0352 43.2998 35.6738 42.2525 33.6552C41.5401 32.0257 40.2553 30.7698 39.1591 29.4034C40.0733 29.9473 40.7879 30.7477 41.5068 31.5149C42.7628 32.857 43.808 34.4401 44.3095 36.2199C44.8332 38.3027 44.8155 40.5336 44.1741 42.5898C43.4818 44.7986 42.0394 46.6846 40.4572 48.3406C39.0171 49.9149 37.2418 51.1221 35.4843 52.3094C41.3781 52.7405 47.3141 51.2039 52.4823 48.4136C56.066 46.3751 59.49 43.6445 61.2364 39.8194C62.752 36.5958 62.721 32.7465 61.2875 29.5029C61.1432 29.2243 60.9679 28.9634 60.8015 28.6981C57.3864 31.935 52.0829 33.0516 47.6891 31.3005C46.9635 31.0904 47.1588 30.195 47.09 29.6245C46.9946 25.2468 46.8969 20.7076 48.4591 16.5443Z" fill="#42C890"></path><path d="M51.8565 8.8809C52.4579 8.7615 52.7663 9.63043 52.844 10.0925C52.2892 10.2539 51.8121 9.35184 51.8565 8.8809Z" fill="#42C890"></path><path d="M51.0599 9.39167C51.6634 9.24133 51.8876 9.99307 52.165 10.3734C52.0962 10.4883 51.9586 10.7161 51.8898 10.8288C51.5991 10.3689 51.0488 9.98643 51.0599 9.39167Z" fill="#42C890"></path><path d="M67.7272 9.55089C68.4683 9.37622 67.3632 10.5923 67.1879 10.0749C67.3011 9.83832 67.4786 9.66365 67.7272 9.55089Z" fill="#42C890"></path><path d="M50.3209 10.2186C50.4541 10.1323 50.5939 10.0505 50.7337 9.97095C51.0288 10.3402 51.3195 10.7116 51.5969 11.0941C50.9644 11.5474 50.5872 10.6674 50.3209 10.2186Z" fill="#42C890"></path><path d="M67.4498 10.6718C67.8181 10.3424 68.526 9.36071 68.8433 10.2827L68.3663 10.3711C68.4683 10.4861 68.5726 10.6011 68.6769 10.7138C68.9876 10.0616 69.6844 11.0389 69.1274 11.1185L68.8123 11.3152C68.921 11.3948 69.0297 11.4722 69.1407 11.5496C69.4736 11.2246 69.7731 11.4236 70.035 11.6823C69.6821 11.9454 69.3271 12.2129 68.9299 12.403C68.759 11.9233 68.4461 11.5363 68.06 11.2113L68.4572 10.9968C68.131 10.8642 67.7871 10.7647 67.4498 10.6718Z" fill="#42C890"></path><path d="M49.7151 10.7227C50.2388 10.5458 50.605 11.2843 50.8646 11.6624C50.312 12.2107 49.8017 11.1848 49.4977 10.8045L49.7151 10.7227Z" fill="#42C890"></path><path d="M49.0117 11.2798C49.5642 11.2776 49.8971 11.806 50.2499 12.1553C50.1944 12.2438 50.0835 12.4207 50.028 12.5091C49.6264 12.1775 48.9251 11.89 49.0117 11.2798Z" fill="#42C890"></path><path d="M62.2017 11.5341C62.6411 11.5363 62.9962 11.7596 63.1826 12.1553C62.7964 12.0514 62.4614 11.8348 62.2017 11.5341Z" fill="#42C890"></path><path d="M48.3992 12.2659C48.1529 11.9343 48.65 11.9785 48.8364 12.0824C49.1981 12.3013 49.5021 12.5976 49.8216 12.8739C49.3334 13.5837 48.6744 12.7059 48.3992 12.2659Z" fill="#42C890"></path><path d="M69.0053 12.8032C69.3515 12.5357 69.762 12.3831 70.1704 12.235C70.319 12.8519 69.3116 13.5063 69.0053 12.8032Z" fill="#42C890"></path><path d="M47.749 13.1172C47.8201 12.9558 47.9133 12.8054 47.9998 12.6506C48.3659 13.0287 49.2913 13.2476 49.0916 13.8755C48.5501 13.8998 48.1374 13.4355 47.749 13.1172Z" fill="#42C890"></path><path d="M69.4092 13.4953C69.6755 13.4555 69.9396 13.4179 70.2081 13.3892C70.0882 13.6567 69.9262 13.88 69.7154 14.0569C69.3515 14.2006 69.5091 13.6722 69.4092 13.4953Z" fill="#42C890"></path><path d="M47.2209 13.5439C47.789 13.5882 48.2572 13.9198 48.7254 14.2117C48.6788 14.3311 48.5856 14.5676 48.539 14.687C48.0242 14.3996 47.3873 14.1741 47.2209 13.5439Z" fill="#42C890"></path><path d="M47.019 14.3553C47.5205 14.5963 48.1884 14.7224 48.4125 15.2994C47.8267 15.5603 47.3363 15.0032 46.8437 14.7732C46.8881 14.6693 46.9746 14.4615 47.019 14.3553Z" fill="#42C890"></path><path d="M64.9622 14.875C66.0584 14.3819 67.7116 15.0629 67.7427 16.363C67.7249 17.5569 66.1738 18.1848 65.2063 17.6056C64.1722 17.1567 63.6752 15.3393 64.9622 14.875ZM64.3342 15.8788C64.6582 16.5774 65.1952 17.2982 66.0473 17.3203C66.6287 17.4265 67.5718 16.9489 67.2123 16.2635C66.8573 15.0275 64.9822 14.7445 64.3342 15.8788Z" fill="#42C890"></path><path d="M57.8701 15.3039C57.9678 15.0474 58.3716 14.8683 58.4071 15.2575C59.1661 17.8488 60.0603 20.4025 60.8082 22.9982C61.1432 23.7477 60.3932 24.3248 60.0226 24.8842C56.8849 22.9429 55.8575 18.3838 57.8701 15.3039Z" fill="#42C890"></path><path d="M46.5508 15.2707C47.0722 15.1403 47.5449 15.6289 48.0131 15.8257C47.9132 15.9738 47.8134 16.122 47.7113 16.2701C47.343 15.9517 46.391 15.9119 46.5508 15.2707Z" fill="#42C890"></path><path d="M64.7514 15.861C65.1442 15.6753 65.5747 15.4277 66.0252 15.5891C66.5378 15.7018 66.6953 16.2811 66.9638 16.657C66.1139 17.2694 65.1575 16.6724 64.7514 15.861Z" fill="#42C890"></path><path d="M46.0781 16.3784C46.5219 15.7814 47.2653 16.5288 47.7757 16.6791C47.3163 17.307 46.553 16.6968 46.0781 16.3784Z" fill="#42C890"></path><path d="M45.8983 17.066C46.4287 17.0108 46.9413 17.2208 47.3918 17.4773C47.3696 17.5723 47.3274 17.7669 47.3052 17.862C46.8237 17.6984 45.8429 17.7426 45.8983 17.066Z" fill="#42C890"></path><path d="M45.6875 17.9549C46.2845 17.9438 47.0589 18.0102 47.3052 18.6624C46.7771 18.5806 45.6964 18.7066 45.6875 17.9549Z" fill="#42C890"></path><path d="M45.3858 18.8459C45.9649 18.8393 46.5308 18.9764 47.0722 19.1754C46.9324 19.4385 46.786 19.6994 46.6373 19.9581L46.9746 20.1681C46.4154 20.3671 45.5855 20.4379 45.2326 19.8586C45.6254 19.7149 46.0337 19.6905 46.4553 19.7856C46.3976 19.6883 46.28 19.4915 46.2223 19.3943C45.8096 19.4363 45.5322 19.1975 45.3858 18.8459Z" fill="#42C890"></path><path d="M45.2171 20.6147C45.6853 20.6036 46.1513 20.6656 46.6173 20.712C46.6284 20.8292 46.6528 21.0613 46.6661 21.1785C46.1624 21.0834 45.1306 21.4306 45.2171 20.6147Z" fill="#42C890"></path><path d="M66.267 20.942C67.1103 20.8469 67.9469 20.701 68.7901 20.6169C68.6259 21.6583 68.1177 22.7351 67.1635 23.2724C66.591 23.3586 66.9239 22.6245 66.8662 22.326C66.9793 21.7755 66.5244 21.3709 66.267 20.942Z" fill="#42C890"></path><path d="M45.0196 21.6494C45.5034 21.4017 46.0603 21.5764 46.5752 21.5852C46.5885 21.7024 46.6129 21.939 46.6262 22.0562C46.0914 21.9854 45.3347 22.2309 45.0196 21.6494Z" fill="#42C890"></path><path d="M45.0618 22.3702C45.5766 22.4675 46.3178 22.2221 46.6262 22.7704C46.1624 23.0954 45.581 22.892 45.0618 22.8942C45.0618 22.7638 45.0618 22.5007 45.0618 22.3702Z" fill="#42C890"></path><path d="M44.9575 23.7564C44.993 22.9826 45.8806 23.4093 46.3821 23.3474C46.3954 23.469 46.4198 23.7144 46.4331 23.836C45.9405 23.8272 45.4479 23.8029 44.9575 23.7564Z" fill="#42C890"></path><path d="M44.993 24.5282C45.0573 23.8848 45.9383 24.3093 46.3843 24.2253C46.3954 24.3491 46.4198 24.5923 46.4309 24.7139C45.9583 24.6564 45.4035 24.8001 44.993 24.5282Z" fill="#42C890"></path><path d="M45.0085 25.0876C45.4679 25.0433 45.9316 25.0721 46.3932 25.0831C46.391 25.2092 46.3843 25.459 46.3821 25.5828C45.9338 25.4833 44.7999 25.8791 45.0085 25.0876Z" fill="#42C890"></path><path d="M44.7444 25.9984C45.2815 25.9321 45.8207 25.9431 46.3599 25.9652C46.3577 26.0802 46.3533 26.3146 46.351 26.4318C45.7918 26.3875 45.0063 26.6661 44.7444 25.9984Z" fill="#42C890"></path><path d="M44.8066 27.2145C45.0573 26.5778 45.8518 26.9161 46.3732 26.8365C46.3688 26.9603 46.3621 27.2057 46.3577 27.3295C45.8407 27.3339 45.3036 27.3958 44.8066 27.2145Z" fill="#42C890"></path><path d="M44.8598 27.7275C45.3658 27.7098 45.874 27.7031 46.3799 27.7009C46.3799 27.8292 46.3755 28.0834 46.3732 28.2095C45.8762 28.2028 45.3791 28.1896 44.882 28.1719C44.8776 28.0591 44.8665 27.838 44.8598 27.7275Z" fill="#42C890"></path><path d="M44.8865 28.592C45.3991 28.561 45.9117 28.5632 46.4243 28.5853C46.4132 28.7047 46.3888 28.9457 46.3777 29.0651C45.854 29.0054 45.1283 29.2199 44.8865 28.592Z" fill="#42C890"></path><path d="M45.3613 29.4454C45.8118 29.4012 46.3399 29.2773 46.6684 29.6952L46.178 29.8058C46.3555 30.0667 46.5241 30.3342 46.6861 30.6061C46.5974 30.6039 46.4221 30.5973 46.3333 30.5951C46.0914 30.144 45.6942 29.8235 45.3613 29.4454Z" fill="#42C890"></path><path d="M66.5644 55.1527C68.0179 55.166 69.4713 55.166 70.927 55.1549C70.967 56.2582 70.9404 57.3637 70.9492 58.4692C69.4913 58.4869 68.0312 58.4582 66.5733 58.4869C66.5777 57.3748 66.5799 56.2648 66.5644 55.1527Z" fill="#42C890"></path><path d="M2.01438 56.3135C3.52112 56.3511 5.02785 56.3267 6.53681 56.329C6.53015 62.1992 6.5235 68.0716 6.54347 73.9418C5.03673 73.9418 3.53221 73.9329 2.02548 73.9528C2.02991 68.0716 2.05432 62.1925 2.01438 56.3135Z" fill="#42C890"></path><path d="M52.9705 56.3091C54.9188 56.2936 56.8693 56.3223 58.8177 56.2936C61.2054 62.1527 63.4799 68.0561 65.8476 73.9241C64.1456 73.9307 62.4436 73.9285 60.7438 73.9241C60.2512 72.5798 59.7053 71.2576 59.1905 69.9222C56.967 69.9354 54.7435 69.9288 52.52 69.9288C51.9874 71.2576 51.4748 72.5931 50.9622 73.9307C49.3734 73.9307 47.7823 73.9219 46.1935 73.9307C48.4858 68.0694 50.7359 62.1903 52.9705 56.3091ZM53.6273 66.7936C55.1163 66.6742 56.6097 66.756 58.1031 66.7317C57.3331 64.5318 56.6275 62.3097 55.8752 60.1053C55.0852 62.3208 54.3862 64.5671 53.6273 66.7936Z" fill="#42C890"></path><path d="M66.5644 59.9969C68.029 60.0124 69.4913 59.9881 70.9559 60.0146C70.9448 64.6555 70.9492 69.2942 70.9537 73.9351C69.4935 73.9484 68.0334 73.9285 66.5755 73.9506C66.571 69.2986 66.591 64.6467 66.5644 59.9969Z" fill="#42C890"></path><path d="M77.7906 61.2572C78.9534 60.4922 80.3957 60.4369 81.7449 60.4944C81.7449 61.79 81.7383 63.0857 81.7516 64.3835C80.1627 64.0033 78.2832 64.4233 77.2802 65.7787C76.7609 66.4309 76.7631 67.2954 76.7831 68.087C76.7942 70.0437 76.7787 72.0004 76.7942 73.9594C75.2941 73.9461 73.7941 73.9594 72.294 73.9461C72.3184 69.5374 72.314 65.1264 72.2962 60.7155C73.5988 60.7288 74.8991 60.7243 76.2017 60.7155C76.1973 61.5159 76.1906 62.3163 76.1973 63.1189C76.6344 62.4312 77.0583 61.6795 77.7906 61.2572Z" fill="#42C890"></path><path d="M13.387 61.622C14.5853 60.8371 16.112 60.616 17.5122 60.8481C17.5189 62.1593 17.4501 63.4726 17.5544 64.7815C16.8732 64.2973 15.9722 64.4366 15.2022 64.5892C13.8552 64.8766 12.526 65.9533 12.5172 67.4237C12.5083 69.5993 12.5083 71.7771 12.5238 73.9527C11.0237 73.9527 9.52365 73.9461 8.02135 73.9594C8.03467 69.6324 8.02579 65.3055 8.02801 60.9764C9.33947 60.9852 10.6532 60.983 11.9646 60.9786C11.9646 61.7635 11.9491 62.5506 11.9402 63.3355C12.364 62.7209 12.7302 62.0266 13.387 61.622Z" fill="#42C890"></path><path d="M35.4777 63.2206C36.3387 61.7613 37.9297 60.846 39.6007 60.6779C41.0741 60.5364 42.714 60.6536 43.9079 61.622C45.084 62.5927 45.4723 64.1912 45.4856 65.6549C45.4856 68.4164 45.4767 71.1802 45.49 73.9417C43.9567 73.9307 42.4233 73.9307 40.8922 73.9417C40.901 71.702 40.8877 69.4644 40.8988 67.2247C40.9144 66.3934 40.7723 65.5112 40.2664 64.8302C39.4431 64.0121 38.0873 64.1934 37.1486 64.7108C36.2366 65.1795 36.0702 66.3049 35.9614 67.2181C35.9171 69.46 35.9526 71.702 35.9459 73.9439C34.4259 73.9285 32.908 73.9395 31.388 73.9329C31.5522 69.5617 31.3769 65.1817 31.4745 60.8106C32.8193 60.7177 34.1729 60.7509 35.5176 60.8327C35.5043 61.6287 35.4977 62.4246 35.4777 63.2206Z" fill="#42C890"></path><path d="M18.4465 61.5977C21.136 60.5232 24.1805 60.3529 26.9743 61.1179C28.734 61.6397 29.99 63.3356 30.0898 65.1464C30.183 67.4436 30.1364 69.7475 30.2385 72.0447C30.294 72.6903 30.456 73.3226 30.6468 73.9417C29.1889 73.9329 27.731 73.9329 26.2753 73.9395C26.1266 73.3956 25.9846 72.8473 25.8648 72.2967C24.3891 73.9727 21.977 74.4414 19.8578 73.9638C17.3502 73.5703 16.0299 70.2892 17.3103 68.1821C18.0359 66.9572 19.3496 66.1258 20.7521 65.8981C22.3631 65.5886 24.0185 65.8694 25.6362 65.5952C25.5408 65.1663 25.5985 64.6246 25.2101 64.3261C24.5178 63.7977 23.6058 63.7092 22.7625 63.707C21.278 63.6871 19.8178 64.0365 18.4354 64.5516C18.4487 63.5677 18.4553 62.5816 18.4465 61.5977ZM21.906 68.5712C21.1115 69.0112 21.0072 70.2958 21.7395 70.8419C22.8979 71.3858 24.4579 71.1957 25.2745 70.1499C25.6428 69.502 25.563 68.7304 25.6073 68.0163C24.3669 68.0561 23.0288 67.9455 21.906 68.5712Z" fill="#42C890"></path></svg>