<svg xmlns="http://www.w3.org/2000/svg" width="70" height="70" viewBox="0 0 70 70" fill="none"><path d="M67.0833 46.5791C67.0833 57.8666 57.9542 66.9958 46.6667 66.9958L49.7292 61.8916" stroke="#5B6DAB" stroke-width="1.5" stroke-linecap="round" stroke-linejoin="round"></path><path d="M2.91666 23.2458C2.91666 11.9583 12.0458 2.8291 23.3333 2.8291L20.2708 7.93327" stroke="#5B6DAB" stroke-width="1.5" stroke-linecap="round" stroke-linejoin="round"></path><path d="M19.3083 38.1208H27.5042C29.3125 38.1208 30.8 39.7542 30.8 41.4167C30.8 43.225 29.3417 44.7125 27.5042 44.7125H19.3083V38.1208Z" fill="#5FDDA8" stroke="#5B6DAB" stroke-width="1.5" stroke-miterlimit="10" stroke-linecap="round" stroke-linejoin="round"></path><path d="M19.3083 44.7125H28.7C30.7708 44.7125 32.4625 46.1709 32.4625 48.0084C32.4625 49.8167 30.7708 51.3042 28.7 51.3042H19.3083V44.7125Z" fill="#5FDDA8" stroke="#5B6DAB" stroke-width="1.5" stroke-miterlimit="10" stroke-linecap="round" stroke-linejoin="round"></path><path d="M24.5583 51.275V54.5417" stroke="#5B6DAB" stroke-width="1.5" stroke-miterlimit="10" stroke-linecap="round" stroke-linejoin="round"></path><path d="M24.5583 34.8541V38.1208" stroke="#5B6DAB" stroke-width="1.5" stroke-miterlimit="10" stroke-linecap="round" stroke-linejoin="round"></path><path d="M43.3125 44.7125C43.3125 54.6583 35.2625 62.7083 25.3167 62.7083C15.3709 62.7083 7.32086 54.6583 7.32086 44.7125C7.32086 34.7667 15.3709 26.7166 25.3167 26.7166C25.7834 26.7166 26.2209 26.7458 26.7167 26.7749C35.5542 27.4458 42.6125 34.5041 43.2834 43.3416C43.2834 43.7791 43.3125 44.2167 43.3125 44.7125Z" stroke="#5B6DAB" stroke-width="1.5" stroke-miterlimit="10" stroke-linecap="round" stroke-linejoin="round"></path><path d="M62.7083 25.2874C62.7083 35.2332 54.6583 43.2834 44.7125 43.2834H43.2833C42.6125 34.4459 35.5542 27.3874 26.7167 26.7165V25.2874C26.7167 15.3416 34.7667 7.29163 44.7125 7.29163C54.6583 7.29163 62.7083 15.3416 62.7083 25.2874Z" fill="#5FDDA8" stroke="#5B6DAB" stroke-width="1.5" stroke-miterlimit="10" stroke-linecap="round" stroke-linejoin="round"></path></svg>