<svg width="160" height="59" viewBox="0 0 160 59" fill="none" xmlns="http://www.w3.org/2000/svg">
<path d="M128.271 0.370377C130 -0.239605 132.071 0.378791 133.146 1.88482C134.45 3.58435 134.188 6.24724 132.583 7.66072C130.971 9.34343 128.142 8.2118 126.604 10.0333C124.833 11.8002 125.379 14.4799 125.496 16.7221C125.721 21.1434 121.638 25.0852 117.288 24.8201C113.042 24.8244 109.333 20.8826 109.513 16.6127C109.475 12.305 113.404 8.40952 117.696 8.704C119.875 8.85544 122.467 9.33081 124.183 7.58079C125.892 6.09159 124.908 3.43291 126.325 1.77544C126.825 1.13601 127.504 0.635404 128.271 0.370377Z" fill="#40D7FF"/>
<path d="M153.258 25.1607C155.663 24.4371 158.371 26.2965 158.6 28.8122C158.996 31.2774 156.871 33.7888 154.375 33.671C152.175 33.7762 150.167 31.8663 150.075 29.6535C149.867 27.6259 151.325 25.6529 153.258 25.1607Z" fill="#40D7FF"/>
<path d="M139.764 9.88865L139.771 9.88626L139.778 9.88371C143.034 8.67293 147.005 10.2278 148.561 13.3703L148.564 13.3768L148.568 13.3833C150.01 16.1424 149.457 19.8406 147.197 21.9656L147.185 21.9777L147.172 21.9906C146.037 23.1776 144.404 23.7533 142.679 24.0942L142.675 24.095C135.192 25.6242 128.883 31.3142 125.939 38.2869C125.432 39.4001 125.157 40.6005 124.9 41.7213C124.859 41.901 124.818 42.0786 124.777 42.2535C124.471 43.5549 124.137 44.7378 123.464 45.7648C121.919 48.1059 118.925 49.333 116.193 48.7882L116.185 48.7865L116.177 48.7851C113.091 48.2493 110.546 45.4135 110.349 42.2447L110.348 42.2342L110.347 42.2237C110.115 39.7657 111.279 37.24 113.257 35.7854L113.265 35.7797L113.273 35.7738C114.416 34.8815 115.865 34.5558 117.44 34.2016L117.522 34.1831C117.523 34.1829 117.523 34.1828 117.524 34.1827C123.964 32.7667 129.337 28.1397 132.585 22.555L132.587 22.5515C133.909 20.2445 134.631 17.6824 135.165 15.1691L135.165 15.1661C135.664 12.7622 137.469 10.6853 139.764 9.88865Z" fill="#42C890" stroke="#42C890" stroke-width="1.33333"/>
<path d="M103.679 25.0895C106.238 23.9915 109.475 25.9771 109.546 28.8083C109.775 31.1094 107.883 33.3306 105.596 33.4357C103.383 33.6881 101.204 31.8792 101.029 29.637C100.746 27.7355 101.913 25.7668 103.679 25.0895Z" fill="#6691FF"/>
<path d="M140.787 33.6711C145.262 32.7246 149.933 36.4308 150.162 41.0119C150.662 45.6268 146.479 50.0775 141.875 49.6947C139.692 49.5433 137.075 49.1058 135.383 50.881C133.667 52.4964 134.783 55.3402 133.075 56.964C131.367 58.9286 127.937 58.7267 126.458 56.5812C124.792 54.4694 125.775 50.9315 128.296 50.0229C129.867 49.5096 131.821 49.842 133.029 48.4832C134.817 46.7542 134.333 44.0745 134.221 41.8449C133.933 37.9494 137.029 34.2895 140.787 33.6711Z" fill="#6691FF"/>
<path d="M36.9668 8.34164C37.5031 8.22361 38.0893 8.21446 38.5984 8.44593C39.1682 8.71766 39.602 9.29221 39.6582 9.93264C39.7707 10.9143 39.3116 11.8868 38.6129 12.5501C37.9677 13.1631 37.1111 13.6068 36.2073 13.5748C35.623 13.5821 35.0313 13.3342 34.6693 12.863C34.2455 12.3699 34.182 11.6627 34.3172 11.0461C34.5985 9.73502 35.6983 8.68198 36.9668 8.34164Z" fill="white"/>
<path d="M60.5603 8.35926C61.0531 8.23209 61.5857 8.21654 62.073 8.37298C62.7381 8.59622 63.2544 9.22933 63.3198 9.93654C63.4268 10.8871 62.9967 11.8359 62.3307 12.4928C61.6447 13.178 60.6919 13.6556 59.7074 13.5687C59.0032 13.5412 58.3444 13.0829 58.0641 12.4324C57.8799 11.9877 57.8844 11.4845 57.9815 11.0198C58.2691 9.7435 59.3281 8.71607 60.5603 8.35926Z" fill="white"/>
<path d="M9.37713 13.9943C10.5804 13.2048 11.9696 12.6019 13.4278 12.6073C14.122 12.5945 14.8116 12.7199 15.4767 12.9129C18.4812 13.7876 21.4856 14.6594 24.4909 15.5323C25.1678 15.7134 25.8938 15.9165 26.372 16.47C26.9028 17.051 26.9572 17.9146 26.7812 18.6502C25.2032 24.6162 23.5899 30.5731 22.0228 36.541C22.667 36.551 23.3113 36.5419 23.9555 36.5446C24.5399 36.54 25.1406 36.5904 25.7059 36.4028C26.6034 36.111 27.4436 35.5401 27.9282 34.7093C28.214 34.2409 28.3782 33.7112 28.5071 33.1806C29.7666 28.4204 31.0279 23.6593 32.2901 18.9C32.4462 18.2614 32.6104 17.5981 33.0305 17.0766C33.5722 16.3886 34.4152 15.9302 35.2945 15.9247C36.9759 15.9247 38.6574 15.9211 40.3388 15.9266C38.7771 21.8542 37.1928 27.7763 35.6239 33.702C35.4851 34.2656 35.437 34.8969 35.7019 35.433C36.0849 36.1238 36.8661 36.5785 37.6556 36.53C38.5022 36.4751 39.3624 36.2116 40.0176 35.6489C40.6772 35.0918 41.0829 34.2848 41.2979 33.4559C42.4349 29.144 43.5719 24.8322 44.7134 20.5212C45.0292 19.2824 46.1897 18.3382 47.4592 18.3007C49.1588 18.2852 50.8593 18.2925 52.5597 18.2971C51.5044 22.3464 50.411 26.3856 49.343 30.4313C48.9909 31.8988 48.2986 33.2775 47.3521 34.4449C45.6126 36.5995 42.9911 38.1265 40.199 38.1923C38.534 38.1987 36.868 38.1933 35.2029 38.1951C34.4243 38.2042 33.6212 38.0002 33.0078 37.4998C32.6766 37.2436 32.4389 36.8941 32.2048 36.551C30.762 37.5281 29.0706 38.1823 27.3175 38.1933C21.0237 38.1969 14.7308 38.196 8.43706 38.1942C7.03693 38.1841 5.51248 37.8355 4.54882 36.7367C3.71945 35.7304 3.13145 34.4843 3.04071 33.1677C2.99171 32.348 3.10604 31.5255 3.30204 30.7305C4.41634 26.5531 5.5261 22.3747 6.64039 18.1973C7.10226 16.5679 7.95432 14.9623 9.37713 13.9943ZM15.6029 15.5076C14.8207 15.9055 14.2871 16.6914 14.0648 17.5313C12.6302 22.9758 11.1938 28.4204 9.75915 33.8649C9.61306 34.5099 9.72285 35.2336 10.1466 35.7542C10.5568 36.2793 11.2264 36.5474 11.8798 36.5446C12.8398 36.5419 13.7989 36.5529 14.7581 36.5391C16.3097 30.7158 17.8569 24.8916 19.4094 19.0683C19.7007 18.0116 19.4757 16.7719 18.6808 15.9906C17.8959 15.191 16.591 14.9852 15.6029 15.5076Z" fill="white"/>
<path d="M54.7412 18.19C55.0615 16.9356 56.2348 15.9411 57.5323 15.9256C59.2219 15.9228 60.9115 15.9238 62.602 15.9247C61.0513 21.8129 59.4769 27.6957 57.918 33.5821C57.7837 34.1713 57.7283 34.8218 57.9779 35.3881C58.3281 36.0981 59.1049 36.5381 59.8843 36.5427C60.7545 36.551 61.6248 36.5409 62.4959 36.5464C61.759 35.7147 61.2654 34.6626 61.1556 33.5483C61.0322 32.4586 61.2055 31.3553 61.5023 30.3077C62.5866 26.2474 63.6682 22.1862 64.7526 18.125C64.9758 17.2879 65.5466 16.534 66.3315 16.1589C66.7806 15.932 67.287 15.8524 67.7851 15.857C70.5673 15.857 73.3494 15.857 76.1315 15.857C77.1314 15.8689 78.1341 15.8259 79.1332 15.8917C80.3591 15.9878 81.6394 16.405 82.4588 17.3766C83.3599 18.4983 83.9561 19.92 83.908 21.3811C83.9016 22.4232 83.5758 23.4204 83.319 24.4185C82.7918 26.4121 82.2655 28.4047 81.7383 30.3983C81.2211 32.7102 79.8001 34.766 77.9463 36.1996C76.3674 37.4155 74.4183 38.1959 72.4165 38.195C68.1499 38.195 63.8833 38.195 59.6167 38.195C58.6348 38.1804 57.6503 38.2334 56.6712 38.1484C55.6595 40.7521 53.5624 42.8811 51.0362 44.0119C49.9682 44.484 48.8022 44.7173 47.6371 44.7136C46.5246 44.7118 45.4121 44.7246 44.2996 44.7072C44.3922 44.323 44.4811 43.9369 44.6018 43.56C44.6934 43.2644 44.962 43.0192 45.2823 43.0357C46.1843 43.022 47.0636 42.657 47.7559 42.0824C48.3557 41.571 48.7423 40.8473 48.9474 40.0907C50.8783 32.7907 52.8075 25.4899 54.7412 18.19ZM74.529 17.5514C73.4156 17.7426 72.441 18.4827 71.8422 19.4333C71.4157 20.0774 71.2923 20.8532 71.0836 21.5842C70.0283 25.5576 68.9693 29.531 67.9122 33.5044C67.7234 34.1896 67.7189 34.9755 68.1191 35.5885C68.521 36.2445 69.3041 36.5839 70.0537 36.5455C71.4302 36.4951 72.686 35.5775 73.3131 34.3644C73.5563 33.9179 73.657 33.4147 73.7913 32.9289C74.892 28.7872 75.9945 24.6473 77.0961 20.5055C77.3011 19.7416 77.2612 18.8377 76.7285 18.2137C76.1995 17.5843 75.3039 17.4141 74.529 17.5514Z" fill="white"/>
<path d="M87.9205 16.7944C88.4867 16.2171 89.297 15.9005 90.101 15.9225C91.7307 15.927 93.3604 15.9197 94.991 15.9252C93.3277 22.2462 91.6373 28.5608 89.9649 34.8791C89.7181 35.7811 89.494 36.6905 89.2362 37.589C88.1374 41.0253 85.1629 43.8423 81.6313 44.5586C80.6277 44.7681 79.5987 44.705 78.5815 44.7151C77.9508 44.7105 77.3202 44.7251 76.6904 44.7068C76.8238 44.2082 76.8946 43.662 77.214 43.2412C77.4263 42.9658 77.8056 43.0518 78.1051 43.0015C79.6268 42.8359 80.9262 41.6328 81.3191 40.1562C83.2392 32.9047 85.1575 25.6533 87.0721 18.4009C87.2109 17.8035 87.4822 17.2271 87.9205 16.7944Z" fill="white"/>
<path d="M36.3326 39.4574C37.005 39.3504 37.7672 39.4693 38.2581 39.9826C38.7572 40.4894 38.8588 41.268 38.7082 41.9414C38.3688 43.4592 36.9433 44.687 35.3889 44.7117C34.7718 44.7272 34.1249 44.4921 33.7465 43.9825C33.2791 43.3723 33.2565 42.5159 33.526 41.816C33.9806 40.6212 35.0704 39.666 36.3326 39.4574Z" fill="white"/>
<path d="M42.2307 39.4503C42.9412 39.3442 43.7524 39.5116 44.2206 40.1017C44.7596 40.7622 44.7515 41.7229 44.4212 42.4777C43.8631 43.7713 42.5274 44.7676 41.1001 44.7073C40.4331 44.689 39.7571 44.3331 39.4568 43.7146C39.0965 43.0184 39.2009 42.1629 39.5421 41.4804C40.0593 40.4356 41.0765 39.6287 42.2307 39.4503Z" fill="white"/>
</svg>
