<svg width="43" height="42" viewBox="0 0 43 42" fill="none" xmlns="http://www.w3.org/2000/svg">
<g clip-path="url(#clip0_543_475)">
<path d="M20.2607 0.263782C21.4999 -0.170442 22.984 0.269772 23.7544 1.34186C24.6891 2.5517 24.501 4.44731 23.3513 5.45352C22.1957 6.65138 20.1681 5.84581 19.0662 7.1425C17.7971 8.40025 18.1883 10.3078 18.2719 11.904C18.4332 15.0514 15.5068 17.8574 12.3893 17.6687C9.34645 17.6717 6.68881 14.8657 6.81721 11.8261C6.79034 8.75961 9.60624 5.98656 12.6819 6.19619C14.2437 6.304 16.101 6.64239 17.3313 5.39662C18.5556 4.33651 17.8509 2.44389 18.8662 1.264C19.2245 0.808809 19.7112 0.452445 20.2607 0.263782Z" fill="#40D7FF"/>
<path d="M38.1684 17.9111C39.8914 17.3961 41.8324 18.7197 41.9966 20.5105C42.2803 22.2654 40.7574 24.0532 38.9687 23.9693C37.392 24.0442 35.9527 22.6846 35.887 21.1094C35.7377 19.666 36.7829 18.2615 38.1684 17.9111Z" fill="#40D7FF"/>
<path d="M28.3412 6.5913C30.9033 5.64499 34.0059 6.85184 35.2302 9.30745C36.359 11.4516 35.9349 14.3175 34.1522 15.9825C33.2355 16.9348 31.9455 17.3691 30.6794 17.6176C25.4865 18.6717 21.082 22.6067 19.0276 27.4461C18.2303 29.18 18.281 31.2253 17.215 32.8394C15.9996 34.6692 13.6585 35.6215 11.5115 35.1962C9.08083 34.777 7.09506 32.5759 6.93979 30.1023C6.75763 28.1827 7.6684 26.2242 9.21819 25.0923C10.1528 24.3676 11.3294 24.122 12.4551 23.8704C16.9134 22.8972 20.664 19.7049 22.9394 15.8178C23.8501 14.2396 24.3548 12.4728 24.734 10.7C25.1252 8.82831 26.5346 7.21419 28.3412 6.5913Z" fill="#5BEBAF"/>
<path d="M2.63679 17.8603C4.47027 17.0787 6.79047 18.4922 6.84124 20.5076C7.00548 22.1457 5.64978 23.7269 4.01041 23.8017C2.42478 23.9814 0.863044 22.6937 0.737628 21.0975C0.534572 19.744 1.37068 18.3425 2.63679 17.8603Z" fill="#6691FF"/>
<path d="M29.2311 23.9696C32.4382 23.2958 35.7857 25.9341 35.9499 29.1953C36.3082 32.4804 33.3102 35.6487 30.0105 35.3762C28.4458 35.2684 26.5705 34.957 25.3581 36.2207C24.1279 37.3707 24.9281 39.3951 23.7038 40.551C22.4795 41.9495 20.022 41.8057 18.9619 40.2785C17.7675 38.7752 18.4722 36.2567 20.2788 35.6098C21.4045 35.2445 22.805 35.481 23.671 34.5138C24.952 33.283 24.6056 31.3754 24.525 29.7882C24.319 27.0152 26.5377 24.4098 29.2311 23.9696Z" fill="#6691FF"/>
</g>
<defs>
<clipPath id="clip0_543_475">
<rect width="43" height="42" fill="white"/>
</clipPath>
</defs>
</svg>
