<svg xmlns="http://www.w3.org/2000/svg" width="83" height="64" viewBox="0 0 83 64" fill="none"><path d="M75.9092 5.18971C77.4536 4.27644 78.9065 3.22696 80.414 2.25781C80.6165 2.53197 80.7609 2.84454 80.8067 3.18505C80.9405 4.04419 81.1043 4.90682 81.0779 5.77993C80.9388 7.77411 79.8205 9.6024 78.3377 10.9086C75.3086 13.1874 72.0788 15.185 68.9194 17.2788C66.2725 18.894 63.7471 20.7031 61.0633 22.2625C59.7037 23.1862 58.3265 24.0855 56.9194 24.9377C55.139 26.167 53.23 27.1938 51.4548 28.4301C48.6688 30.1431 45.9057 31.8894 43.1355 33.6251C42.4522 34.0215 41.8024 34.6204 40.9905 34.7008C40.0783 34.0442 39.439 33.0715 38.731 32.2107C38.2591 31.4965 37.6128 30.8975 37.2271 30.1274C39.321 28.823 41.3181 27.3736 43.4032 26.0535C44.3841 25.3899 45.4319 24.8259 46.397 24.1362C48.697 22.5436 51.1414 21.1728 53.4519 19.5942C56.3189 17.7922 59.1895 15.997 62.0248 14.1443C65.4114 12.0244 68.6975 9.74559 72.1246 7.68854C73.3697 6.8329 74.62 5.98075 75.9092 5.18971Z" fill="#42C890"></path><path d="M73.0333 18.5884C73.7149 18.2182 74.3083 17.6349 75.1061 17.5179C75.3139 18.7717 75.6063 20.0342 75.5235 21.3125C75.1942 23.1373 74.3031 24.8852 72.9435 26.1652C70.6735 27.763 68.4175 29.387 66.07 30.8748C64.7122 31.8893 63.1783 32.6349 61.8082 33.6303C59.6527 34.9766 57.4707 36.2845 55.3662 37.7112C54.2021 38.4271 53.0292 39.1309 51.8687 39.8555C50.5391 40.7618 49.1778 41.6262 47.7636 42.3998C47.5611 42.4958 47.2846 42.6704 47.1173 42.4207C46.5273 41.8305 46.0483 41.146 45.5147 40.5104C44.8332 39.6338 44.0407 38.8392 43.4684 37.8823C45.9532 36.2461 48.3483 34.4772 50.8807 32.9091C52.1646 32.043 53.4589 31.1891 54.7304 30.3037C56.6729 29.0954 58.5749 27.8259 60.4698 26.5459C63.3844 24.7246 66.2039 22.7548 69.1766 21.0261C70.4674 20.2228 71.7143 19.3497 73.0333 18.5884Z" fill="#42C890"></path><path d="M8.47397 24.7927C10.0537 24.4575 11.6756 24.5448 13.28 24.5291C15.6222 24.5552 17.9239 25.1367 20.0619 26.0692C21.756 26.6559 23.1931 27.7403 24.6776 28.706C26.9389 30.3859 28.9676 32.3591 30.8467 34.4476C31.9615 35.8341 33.2101 37.1123 34.2509 38.5564C35.6562 40.5296 37.2376 42.3736 38.6395 44.3521C39.4637 45.5587 40.4111 46.6763 41.3005 47.8358C42.8766 49.6938 44.4915 51.5413 46.4129 53.0605C47.6192 53.9842 48.9365 54.8242 50.4299 55.1996C51.1396 55.3777 51.8845 55.3271 52.5942 55.493C53.3462 56.277 53.8552 57.2531 54.5737 58.0651C55.2447 58.8038 55.8751 59.5809 56.4774 60.3754C56.5972 60.5605 56.8015 60.763 56.6623 60.9953C55.854 61.3183 54.9699 61.2153 54.1246 61.2904C51.8863 61.5663 49.6215 61.1455 47.473 60.5395C43.7026 59.3678 40.4763 56.9161 37.7765 54.1117C34.0765 50.0919 31.0034 45.5675 27.7631 41.188C26.1393 38.9249 24.3518 36.777 22.434 34.7531C20.3524 32.8131 18.1881 30.8731 15.5658 29.6786C12.3836 28.0721 8.73461 27.4452 5.1878 27.7788C3.99732 27.9412 2.84557 28.3323 1.64452 28.4249C1.90163 27.9499 2.21687 27.4994 2.65714 27.1746C4.27204 25.7741 6.39238 25.1245 8.47397 24.7927Z" fill="#42C890"></path><path d="M1.65157 29.5582C3.72259 29.3224 5.82532 29.415 7.89106 29.6682C9.88284 30.0139 11.9169 30.3771 13.7185 31.3323C15.6187 32.3207 17.2336 33.7648 18.7076 35.2927C20.1411 36.9656 21.6592 38.5669 22.987 40.3236C25.8523 43.727 28.4569 47.3364 31.3363 50.7275C33.9885 54.1815 36.7921 57.5448 40.0096 60.4994C39.1062 60.5744 38.2203 60.3666 37.3416 60.1885C35.5294 59.8672 33.8106 59.1792 32.1323 58.451C30.6547 57.6391 29.1719 56.8061 27.8511 55.7514C26.0671 54.2706 24.343 52.7042 22.8373 50.9406C19.56 47.4027 16.8144 43.4283 13.6515 39.7962C12.3061 38.0622 10.7229 36.5308 9.15375 35.0011C6.91014 32.8655 4.37067 31.0477 1.65157 29.5582Z" fill="#42C890"></path><path d="M62.5373 37.1577C64.6929 35.7852 66.7868 34.3184 68.9793 33.007C69.4213 33.9971 69.5869 35.0832 69.7102 36.1519C69.7806 38.6437 68.1269 40.7689 66.2532 42.2532C64.9799 43.2101 63.7119 44.1897 62.3119 44.9616C60.3113 46.0617 58.4111 47.3347 56.5426 48.6408C55.5916 49.2328 54.6494 49.8527 53.6192 50.305C52.3389 49.1088 51.3615 47.642 50.1604 46.3742C49.9086 46.1193 49.7096 45.8224 49.567 45.4976C51.9356 44.1129 54.1669 42.5134 56.5303 41.1216C58.5379 39.8102 60.4874 38.408 62.5373 37.1577Z" fill="#42C890"></path><path d="M62.5338 48.8678C62.8191 48.6757 63.3192 48.4051 63.5534 48.8067C64.0712 49.458 64.5484 50.1408 65.1137 50.7537C65.9555 51.681 66.6019 52.7601 67.4243 53.7013C68.5302 55.0023 69.5305 56.3888 70.6013 57.7176C71.0697 58.3131 71.6843 58.837 71.8851 59.5966C70.0677 59.649 68.2714 59.993 66.4504 60.0017C65.4994 60.0471 64.5537 60.1571 63.6098 60.2601C62.9071 60.3055 62.1745 60.4679 61.4824 60.2968C60.1105 58.5157 58.67 56.7782 57.3492 54.9551C56.9635 54.426 56.4792 53.965 56.1551 53.394C56.0865 53.174 56.2978 53.0622 56.444 52.9505C58.4445 51.5465 60.5402 50.2805 62.5338 48.8678Z" fill="#42C890"></path></svg>