<svg xmlns="http://www.w3.org/2000/svg" width="72" height="72" viewBox="0 0 72 72" fill="none"><path d="M36.36 38.3399C36.15 38.3099 35.88 38.3099 35.64 38.3399C30.36 38.1599 26.16 33.8399 26.16 28.5299C26.16 23.0999 30.54 18.6899 36 18.6899C41.43 18.6899 45.84 23.0999 45.84 28.5299C45.81 33.8399 41.64 38.1599 36.36 38.3399Z" fill="#5FDDA8" stroke="#5B6DAB" stroke-width="1.5" stroke-linecap="round" stroke-linejoin="round"></path><path d="M56.22 58.1399C50.88 63.0299 43.8 65.9999 36 65.9999C28.2 65.9999 21.12 63.0299 15.78 58.1399C16.08 55.3199 17.88 52.5599 21.09 50.3999C29.31 44.9399 42.75 44.9399 50.91 50.3999C54.12 52.5599 55.92 55.3199 56.22 58.1399Z" fill="#5FDDA8" stroke="#5B6DAB" stroke-width="1.5" stroke-linecap="round" stroke-linejoin="round"></path><path d="M36 66C52.5685 66 66 52.5685 66 36C66 19.4315 52.5685 6 36 6C19.4315 6 6 19.4315 6 36C6 52.5685 19.4315 66 36 66Z" stroke="#5B6DAB" stroke-width="1.5" stroke-linecap="round" stroke-linejoin="round"></path></svg>