<svg xmlns="http://www.w3.org/2000/svg" width="72" height="72" viewBox="0 0 72 72" fill="none"><path d="M66 25.5C66 36.27 57.27 45 46.5 45C45.99 45 45.45 44.97 44.94 44.94C44.19 35.43 36.57 27.81 27.06 27.06C27.03 26.55 27 26.01 27 25.5C27 14.73 35.73 6 46.5 6C57.27 6 66 14.73 66 25.5Z" stroke="#5B6DAB" stroke-width="1.5" stroke-linecap="round" stroke-linejoin="round"></path><path d="M45 46.5C45 57.27 36.27 66 25.5 66C14.73 66 6 57.27 6 46.5C6 35.73 14.73 27 25.5 27C26.01 27 26.55 27.03 27.06 27.06C36.57 27.81 44.19 35.43 44.94 44.94C44.97 45.45 45 45.99 45 46.5Z" fill="#42C890" stroke="#5B6DAB" stroke-width="1.5" stroke-linecap="round" stroke-linejoin="round"></path><path d="M16.77 6H9C7.35 6 6 7.35 6 9V16.77C6 19.44 9.23997 20.79 11.13 18.9L18.9 11.13C20.76 9.23997 19.44 6 16.77 6Z" stroke="#5B6DAB" stroke-width="1.5" stroke-linecap="round" stroke-linejoin="round"></path><path d="M55.23 66H63C64.65 66 66 64.65 66 63V55.23C66 52.56 62.76 51.2101 60.87 53.1001L53.1 60.87C51.24 62.76 52.56 66 55.23 66Z" stroke="#5B6DAB" stroke-width="1.5" stroke-linecap="round" stroke-linejoin="round"></path></svg>