<svg xmlns="http://www.w3.org/2000/svg" width="72" height="72" viewBox="0 0 72 72" fill="none"><path d="M26.9999 25.1423H41.0538C44.1692 25.1423 46.6961 27.9462 46.6961 30.7847C46.6961 33.9 44.1692 36.427 41.0538 36.427H26.9999V25.1423Z" fill="#5FDDA8" stroke="#5B6DAB" stroke-width="1.5" stroke-miterlimit="10" stroke-linecap="round" stroke-linejoin="round"></path><path d="M26.9999 36.3922H43.0615C46.6269 36.3922 49.4999 38.9191 49.4999 42.0345C49.4999 45.1499 46.6269 47.6768 43.0615 47.6768H26.9999V36.3922Z" fill="#5FDDA8" stroke="#5B6DAB" stroke-width="1.5" stroke-miterlimit="10" stroke-linecap="round" stroke-linejoin="round"></path><path d="M36.8307 47.6423V53.2846" stroke="#5B6DAB" stroke-width="1.5" stroke-miterlimit="10" stroke-linecap="round" stroke-linejoin="round"></path><path d="M29.8038 47.6423V53.2846" stroke="#5B6DAB" stroke-width="1.5" stroke-miterlimit="10" stroke-linecap="round" stroke-linejoin="round"></path><path d="M36.8307 19.5V25.1423" stroke="#5B6DAB" stroke-width="1.5" stroke-miterlimit="10" stroke-linecap="round" stroke-linejoin="round"></path><path d="M29.8038 19.5V25.1423" stroke="#5B6DAB" stroke-width="1.5" stroke-miterlimit="10" stroke-linecap="round" stroke-linejoin="round"></path><path d="M32.3308 25.1423H22.5" stroke="#5B6DAB" stroke-width="1.5" stroke-miterlimit="10" stroke-linecap="round" stroke-linejoin="round"></path><path d="M32.3308 47.6423H22.5" stroke="#5B6DAB" stroke-width="1.5" stroke-miterlimit="10" stroke-linecap="round" stroke-linejoin="round"></path><path d="M36 66C52.5686 66 66 52.5685 66 36C66 19.4315 52.5686 6 36 6C19.4315 6 6.00002 19.4315 6.00002 36C6.00002 52.5685 19.4315 66 36 66Z" stroke="#5B6DAB" stroke-width="1.5" stroke-miterlimit="10"></path></svg>