<svg xmlns="http://www.w3.org/2000/svg" width="84" height="83" viewBox="0 0 84 83" fill="none"><path d="M46.4736 7.67395C50.2149 6.59191 54.1909 6.23675 58.0525 6.78605C62.325 7.36243 66.4831 8.96216 69.9308 11.5687C73.1393 13.9781 75.7142 17.2001 77.478 20.7969C75.7789 19.5493 73.9821 18.3363 71.8872 17.8833C69.0986 17.2874 66.0812 17.31 63.4296 18.4492C62.2407 18.9293 61.1602 19.626 60.1157 20.3604C55.9907 23.5433 52.8289 27.867 48.3518 30.6105C45.1237 32.6436 41.229 33.5751 37.4306 33.2441C35.4847 33.0484 33.5223 32.4028 32.0369 31.092C30.7021 29.9347 29.903 28.2161 29.8081 26.4569C29.7028 24.6434 30.2656 22.8706 30.9639 21.2197C33.8157 14.72 39.6699 9.66045 46.4736 7.67395Z" fill="#AAB4DA"></path><path d="M57.0668 28.0476C57.9742 26.7564 59.4159 25.6788 61.0548 25.712C62.3912 25.6803 63.6282 26.3907 64.5372 27.3252C66.8367 29.6172 68.1911 32.758 68.599 35.9559C69.2882 41.923 66.3732 48.1353 61.3844 51.4657C58.7869 53.1978 55.6446 54.0541 52.5339 54.0135C53.625 53.395 54.7687 52.7975 55.5799 51.8103C56.6935 50.4604 57.5589 48.8245 57.6943 47.0547C57.7756 46.2361 57.7094 45.4099 57.5739 44.6002C57.0126 41.2578 55.3406 38.1576 55.2112 34.7324C55.0818 32.3818 55.7364 29.9904 57.0668 28.0476Z" fill="#AAB4DA"></path><path d="M8.509 27.6412C10.8221 26.6314 13.4271 26.5757 15.8921 26.9218C18.5995 27.2951 21.1955 28.35 23.4484 29.888C27.6019 32.636 30.6088 36.7264 34.5742 39.7001C36.6947 41.3089 39.253 42.4285 41.9393 42.5264C44.2313 42.6031 46.5955 42.3413 48.6708 41.3059C49.8131 40.7972 50.7642 39.971 51.8221 39.3224C50.5369 41.9921 48.7521 44.4211 46.6362 46.4933C43.0846 49.9878 38.4027 52.2436 33.5118 53.0924C28.383 53.9818 22.9848 53.4235 18.1811 51.4009C14.1555 49.6988 10.6219 46.8831 8.01238 43.3812C6.46231 41.2743 5.18463 38.9296 4.51193 36.3893C4.09657 34.8573 4.05143 33.1928 4.58116 31.6819C5.22075 29.8414 6.7347 28.3952 8.509 27.6412Z" fill="#AAB4DA"></path><path d="M37.3975 54.9887C39.0845 54.0737 41.086 53.7321 42.9777 54.0752C44.1967 54.304 45.4172 54.9842 45.9559 56.146C46.4977 57.2476 46.2614 58.5539 45.7784 59.6314C44.8167 61.812 43.1267 63.6435 41.1011 64.8836C36.1875 67.8829 29.2212 67.0883 25.2527 62.864C24.2791 61.7804 23.4077 60.5659 22.875 59.2025C23.5928 59.7096 24.2896 60.28 25.1399 60.5494C26.6749 61.0611 28.4206 61.1333 29.9255 60.4802C30.3875 60.286 30.8194 60.0302 31.2438 59.7653C33.4019 58.3131 35.0739 56.2107 37.3975 54.9887Z" fill="#AAB4DA"></path><path d="M63.4296 18.4492C66.0813 17.31 69.0986 17.2874 71.8872 17.8834C73.9821 18.3364 75.779 19.5493 77.478 20.7969C78.2124 21.891 78.4908 23.3914 77.8723 24.5998C77.4449 25.5314 76.5043 26.1273 75.5231 26.3305C74.0363 26.633 72.4967 26.3741 71.0625 25.9362C68.4515 25.1145 66.167 23.5599 63.8525 22.1423C62.6591 21.4576 61.4747 20.6645 60.1158 20.3605C61.1602 19.6261 62.2407 18.9293 63.4296 18.4492Z" fill="#AAB4DA"></path><path d="M39.9784 36.8288C42.4254 35.3254 45.0365 33.8341 47.9605 33.6098C49.3165 33.506 50.8695 33.6866 51.8161 34.7731C52.9493 36.0267 52.7687 38.0162 51.8221 39.3225C50.7642 39.9711 49.8131 40.7973 48.6708 41.306C46.5956 42.3414 44.2313 42.6032 41.9393 42.5265C39.253 42.4287 36.6947 41.309 34.5742 39.7002C36.5412 39.0968 38.2297 37.8748 39.9784 36.8288Z" fill="#AAB4DA"></path><path d="M53.6958 47.2353C55.0005 46.3775 56.4377 45.6928 57.5739 44.6002C57.7094 45.4099 57.7756 46.2361 57.6943 47.0547C57.5589 48.8245 56.6936 50.4604 55.5799 51.8103C54.7688 52.7975 53.625 53.395 52.534 54.0135C51.5678 54.1625 50.4587 53.7456 50.0358 52.8216C49.6821 52.0842 49.9079 51.2279 50.2781 50.5462C51.0411 49.1165 52.3564 48.0931 53.6958 47.2353Z" fill="#AAB4DA"></path><path d="M23.5266 56.5313C24.7908 56.1821 26.1121 56.6592 27.2167 57.2747C28.6042 58.0317 29.7766 59.1513 31.2439 59.7654C30.8195 60.0302 30.3876 60.2861 29.9255 60.4802C28.4206 61.1333 26.6749 61.0611 25.1399 60.5494C24.2896 60.28 23.5928 59.7097 22.875 59.2025C22.2203 58.3628 22.434 56.8849 23.5266 56.5313Z" fill="#AAB4DA"></path><path d="M34.2868 70.8716C42.2554 70.6805 50.239 70.7693 58.188 71.3818C60.0134 71.5353 61.8359 71.7324 63.6463 72.0229C64.5718 72.1959 65.5215 72.3524 66.3823 72.7573C66.6095 72.8506 66.8337 73.0718 66.6983 73.3367C66.3191 73.7114 65.7577 73.8107 65.2656 73.9672C62.2573 74.67 59.1617 74.8641 56.0901 75.1049C48.6272 75.57 41.1417 75.6512 33.6668 75.445C29.599 75.3156 25.5282 75.1275 21.4799 74.6821C19.9555 74.5045 18.4249 74.3043 16.9381 73.913C16.5017 73.7671 16.005 73.6677 15.683 73.3141C15.54 72.9138 16.0442 72.7527 16.3211 72.6173C17.68 72.1252 19.1293 71.9672 20.5514 71.7625C25.1083 71.2042 29.7013 71.004 34.2868 70.8716Z" fill="#AAB4DA"></path></svg>