<svg xmlns="http://www.w3.org/2000/svg" width="83" height="83" viewBox="0 0 83 83" fill="none"><path d="M46.7615 7.80613C50.4679 6.73416 54.4069 6.38231 58.2325 6.92649C62.4652 7.49751 66.5846 9.08235 70.0003 11.6646C73.1789 14.0515 75.7298 17.2436 77.4772 20.8069C75.794 19.5709 74.0138 18.3692 71.9385 17.9205C69.1758 17.3301 66.1865 17.3524 63.5596 18.481C62.3817 18.9566 61.3113 19.6469 60.2766 20.3745C56.19 23.5278 53.0576 27.8112 48.6221 30.5291C45.4241 32.5433 41.5657 33.4662 37.8026 33.1382C35.8749 32.9444 33.9307 32.3048 32.4592 31.0062C31.1368 29.8597 30.3451 28.157 30.2512 26.4142C30.1468 24.6176 30.7044 22.8613 31.3962 21.2258C34.2214 14.7866 40.0211 9.77413 46.7615 7.80613Z" fill="#42C890"></path><path d="M57.256 27.9901C58.155 26.7109 59.5833 25.6434 61.2069 25.6762C62.5308 25.6449 63.7564 26.3486 64.6569 27.2744C66.935 29.5451 68.2768 32.6566 68.6808 35.8248C69.3637 41.7363 66.4758 47.8907 61.5334 51.1901C58.9601 52.9061 55.8471 53.7545 52.7654 53.7142C53.8463 53.1015 54.9794 52.5096 55.783 51.5315C56.8863 50.1942 57.7435 48.5736 57.8777 46.8203C57.9582 46.0092 57.8926 45.1907 57.7584 44.3886C57.2023 41.0773 55.5459 38.006 55.4177 34.6127C55.2895 32.2839 55.938 29.9148 57.256 27.9901Z" fill="#42C890"></path><path d="M9.15032 27.5875C11.4418 26.5871 14.0226 26.532 16.4647 26.8749C19.1469 27.2446 21.7187 28.2898 23.9506 29.8135C28.0655 32.5359 31.0443 36.5882 34.9729 39.5342C37.0736 41.128 39.6081 42.2372 42.2694 42.3341C44.54 42.4102 46.8822 42.1507 48.9382 41.125C50.0698 40.6211 51.0121 39.8026 52.0602 39.16C50.7869 41.8048 49.0187 44.2112 46.9225 46.2642C43.404 49.726 38.7657 51.9609 33.9203 52.8018C28.8393 53.6829 23.4914 53.1298 18.7324 51.126C14.7442 49.4398 11.2436 46.6503 8.65832 43.181C7.12268 41.0937 5.8569 38.7708 5.19046 36.2542C4.77897 34.7364 4.73424 33.0875 5.25904 31.5906C5.89268 29.7672 7.39254 28.3345 9.15032 27.5875Z" fill="#42C890"></path><path d="M37.7698 54.6803C39.4411 53.7738 41.424 53.4354 43.2981 53.7753C44.5057 54.0019 45.7149 54.6758 46.2486 55.8268C46.7853 56.9181 46.5513 58.2122 46.0727 59.2797C45.12 61.4401 43.4457 63.2545 41.4389 64.483C36.5711 67.4544 29.6697 66.6672 25.7382 62.4822C24.7736 61.4087 23.9103 60.2056 23.3825 58.8548C24.0937 59.3573 24.784 59.9223 25.6264 60.1892C27.1471 60.6961 28.8765 60.7677 30.3674 60.1206C30.8252 59.9283 31.253 59.6748 31.6735 59.4124C33.8114 57.9737 35.4678 55.8909 37.7698 54.6803Z" fill="#42C890"></path><path d="M63.5596 18.481C66.1865 17.3524 69.1758 17.33 71.9385 17.9204C74.0138 18.3692 75.794 19.5709 77.4772 20.8068C78.2048 21.8907 78.4806 23.3771 77.8678 24.5743C77.4444 25.4972 76.5126 26.0876 75.5405 26.2889C74.0675 26.5886 72.5423 26.3321 71.1215 25.8983C68.5347 25.0842 66.2715 23.5441 63.9785 22.1397C62.7962 21.4613 61.6229 20.6756 60.2766 20.3745C61.3113 19.6469 62.3817 18.9566 63.5596 18.481Z" fill="#209967"></path><path d="M40.3267 36.6895C42.7509 35.2001 45.3377 33.7226 48.2345 33.5005C49.5778 33.3976 51.1164 33.5765 52.0542 34.6529C53.1769 35.8949 52.998 37.8658 52.0602 39.1599C51.0121 39.8025 50.0698 40.621 48.9382 41.125C46.8822 42.1507 44.54 42.4101 42.2694 42.3341C39.6081 42.2372 37.0736 41.1279 34.9729 39.5342C36.9215 38.9363 38.5943 37.7257 40.3267 36.6895Z" fill="#209967"></path><path d="M53.9164 46.9991C55.209 46.1493 56.6328 45.4709 57.7584 44.3885C57.8926 45.1907 57.9582 46.0092 57.8777 46.8202C57.7435 48.5735 56.8863 50.1942 55.783 51.5315C54.9794 52.5095 53.8463 53.1014 52.7654 53.7142C51.8082 53.8618 50.7094 53.4488 50.2905 52.5334C49.9401 51.8028 50.1637 50.9545 50.5305 50.2791C51.2864 48.8628 52.5894 47.8489 53.9164 46.9991Z" fill="#209967"></path><path d="M24.0281 56.2084C25.2805 55.8625 26.5895 56.3351 27.6838 56.9449C29.0584 57.6948 30.2198 58.8041 31.6735 59.4124C31.253 59.6748 30.8252 59.9282 30.3674 60.1205C28.8765 60.7676 27.1471 60.696 25.6264 60.1891C24.784 59.9223 24.0937 59.3572 23.3825 58.8548C22.734 58.0228 22.9457 56.5588 24.0281 56.2084Z" fill="#209967"></path><path d="M34.6881 70.4153C42.5825 70.226 50.4917 70.3139 58.3667 70.9207C60.1752 71.0728 61.9807 71.2681 63.7742 71.5559C64.6912 71.7273 65.6319 71.8824 66.4847 72.2834C66.7099 72.3759 66.932 72.595 66.7978 72.8574C66.4221 73.2287 65.866 73.3271 65.3785 73.4821C62.3981 74.1784 59.3313 74.3707 56.2884 74.6092C48.895 75.0699 41.4792 75.1504 34.0738 74.9462C30.0439 74.818 26.011 74.6316 22.0005 74.1903C20.4902 74.0144 18.9739 73.8161 17.5009 73.4284C17.0685 73.2838 16.5765 73.1854 16.2575 72.8351C16.1158 72.4385 16.6153 72.2789 16.8896 72.1448C18.2359 71.6572 19.6717 71.5007 21.0806 71.2979C25.595 70.7448 30.1453 70.5465 34.6881 70.4153Z" fill="#182966"></path></svg>